<svg version="1.1" id="Layer_1" xmlns="http://www.w3.org/2000/svg" xmlns:xlink="http://www.w3.org/1999/xlink" x="0px" y="0px"
	 width="100%" viewBox="0 0 273 273" enable-background="new 0 0 273 273" xml:space="preserve">
<path fill="#FFFFFF" opacity="1.000000" stroke="none"
	d="
M136.906235,17.000000
	C157.742462,17.443050 176.721069,22.572411 195.024109,31.734863
	C205.538895,36.998535 214.690750,43.933601 222.792404,51.768356
	C236.613617,65.134262 246.642349,81.224182 251.131317,100.464249
	C253.415726,110.255447 253.683228,119.812874 253.438461,129.839310
	C253.070450,144.914520 248.725571,158.385361 241.923538,171.345230
	C233.632004,187.143066 221.418320,199.214279 206.244232,208.591125
	C203.959457,210.002991 202.924240,214.063660 202.141357,217.112274
	C201.266800,220.517746 201.648849,224.230713 200.929413,227.694672
	C199.735199,233.444580 198.447968,239.228821 196.461395,244.732010
	C195.745789,246.714355 193.021927,248.108353 191.007263,249.462463
	C179.875137,256.944702 167.638092,260.996582 154.149887,260.999695
	C147.317291,261.001282 140.444946,261.469025 133.661102,260.893951
	C122.493713,259.947296 111.263084,258.947327 100.281425,256.821442
	C87.974258,254.438965 77.659584,241.713669 75.973579,228.845642
	C75.111115,222.263077 74.133530,215.687729 72.898643,209.167725
	C72.612999,207.659531 71.361885,205.919830 70.047890,205.083420
	C52.665619,194.019226 38.867794,179.808670 31.023460,160.490616
	C28.872852,155.194351 27.873999,149.441605 25.947998,144.040466
	C22.681702,134.880692 22.301783,125.343430 23.208147,115.974442
	C24.086430,106.895706 26.225229,97.857513 28.669687,89.039711
	C30.358902,82.946274 33.071659,77.015900 36.143127,71.464157
	C38.641201,66.948830 42.154030,62.933609 45.558750,58.991932
	C59.338654,43.038769 75.906258,30.821848 95.847878,23.843298
	C103.979126,20.997772 112.672684,19.628794 121.202377,18.101774
	C126.183441,17.210045 131.346222,17.333351 136.906235,17.000000
M113.316162,218.962509
	C115.862358,216.974594 118.203705,214.614288 120.997917,213.077271
	C126.600876,209.995255 130.822815,213.848297 135.077942,216.660431
	C137.712799,218.401749 139.804199,219.225632 142.052689,215.960938
	C146.589584,209.373611 152.081635,209.463531 157.298523,215.577454
	C159.127136,217.720490 160.798965,220.022858 164.960022,217.245041
	C171.963699,212.569595 179.775009,211.499725 186.799423,218.189957
	C187.412003,218.773392 188.517807,218.838959 189.734253,219.263702
	C190.189148,216.244446 190.949829,213.549805 190.921616,210.863449
	C190.872070,206.143967 192.988892,203.270432 196.773560,200.515274
	C207.697556,192.562851 218.820145,185.255554 226.303375,172.914658
	C231.909042,163.670151 236.247330,154.284088 238.811737,144.115021
	C240.542587,137.251389 240.164856,129.878464 241.047424,122.772743
	C242.139984,113.976479 240.341293,105.441452 237.555847,97.422638
	C232.918060,84.071251 225.145981,72.227875 215.369064,62.056190
	C206.106171,52.419292 194.900375,45.408623 182.647888,39.774445
	C170.369583,34.128380 157.417664,32.238491 144.322952,31.139759
	C132.549347,30.151869 120.867783,31.836836 109.409294,34.973156
	C97.230286,38.306690 86.473618,44.241207 76.531494,51.892372
	C67.896744,58.537426 60.674995,66.445404 54.935196,75.667618
	C52.519413,79.549103 49.945995,83.504227 48.515160,87.783905
	C46.687126,93.251617 46.259571,99.172173 44.668190,104.737366
	C40.542717,119.164497 44.171139,132.943253 48.317322,146.493835
	C50.109631,152.351456 54.345074,157.415115 56.906452,163.093933
	C61.629681,173.565781 69.157997,181.793915 77.194199,189.657852
	C82.743004,195.087723 89.238403,199.948746 87.027092,209.249817
	C86.920074,209.699936 86.966209,210.491852 87.242004,210.677551
	C88.904526,211.796921 89.062286,216.215012 92.973152,212.200302
	C97.014214,208.051971 103.023872,209.296875 107.197479,213.672775
	C108.934059,215.493546 110.765335,217.223999 113.316162,218.962509
M181.999313,237.996399
	C181.638351,234.263901 181.570221,230.473221 180.843155,226.813461
	C179.909302,222.112793 173.245209,219.707397 170.562683,223.193283
	C167.863190,226.701233 165.675278,230.784912 164.125488,234.938080
	C162.880249,238.275040 162.923279,242.092743 162.336899,246.091003
	C169.793427,245.622696 177.285172,246.176147 181.999313,237.996399
M117.999702,231.549225
	C117.540993,236.221130 117.082291,240.893036 116.642517,245.372116
	C121.101028,246.329727 124.814323,247.351990 128.595352,247.791473
	C129.621948,247.910782 131.797058,246.318558 131.841660,245.431305
	C132.216614,237.971786 132.641190,230.445496 128.850082,223.516403
	C127.117577,220.349869 123.272125,218.805817 121.805412,221.131485
	C120.010277,223.977936 119.223038,227.460022 117.999702,231.549225
M148.467331,222.074417
	C148.072769,223.438629 147.918076,224.936798 147.243576,226.144684
	C143.643112,232.592438 141.173889,239.264618 142.233307,246.928635
	C146.174103,247.295822 149.940094,247.646713 153.983383,248.023438
	C153.983383,243.621735 154.289337,239.649170 153.898895,235.746292
	C153.493713,231.696243 152.510773,227.690063 151.541367,223.723160
	C151.366150,223.006180 150.035919,222.571457 148.467331,222.074417
M106.278534,237.811005
	C105.033035,233.884842 104.101204,229.815338 102.401855,226.096573
	C101.621399,224.388657 99.334770,223.369019 97.731140,222.037262
	C97.167053,223.285248 96.629837,224.546188 96.034409,225.779037
	C92.820236,232.433975 98.088684,241.499405 105.526588,241.752243
	C106.334023,241.779709 109.724258,240.772583 106.278534,237.811005
z"/>
<path fill="#000000" opacity="1.000000" stroke="none"
	d="
M112.934860,218.979004
	C110.765335,217.223999 108.934059,215.493546 107.197479,213.672775
	C103.023872,209.296875 97.014214,208.051971 92.973152,212.200302
	C89.062286,216.215012 88.904526,211.796921 87.242004,210.677551
	C86.966209,210.491852 86.920074,209.699936 87.027092,209.249817
	C89.238403,199.948746 82.743004,195.087723 77.194199,189.657852
	C69.157997,181.793915 61.629681,173.565781 56.906452,163.093933
	C54.345074,157.415115 50.109631,152.351456 48.317322,146.493835
	C44.171139,132.943253 40.542717,119.164497 44.668190,104.737366
	C46.259571,99.172173 46.687126,93.251617 48.515160,87.783905
	C49.945995,83.504227 52.519413,79.549103 54.935196,75.667618
	C60.674995,66.445404 67.896744,58.537426 76.531494,51.892372
	C86.473618,44.241207 97.230286,38.306690 109.409294,34.973156
	C120.867783,31.836836 132.549347,30.151869 144.322952,31.139759
	C157.417664,32.238491 170.369583,34.128380 182.647888,39.774445
	C194.900375,45.408623 206.106171,52.419292 215.369064,62.056190
	C225.145981,72.227875 232.918060,84.071251 237.555847,97.422638
	C240.341293,105.441452 242.139984,113.976479 241.047424,122.772743
	C240.164856,129.878464 240.542587,137.251389 238.811737,144.115021
	C236.247330,154.284088 231.909042,163.670151 226.303375,172.914658
	C218.820145,185.255554 207.697556,192.562851 196.773560,200.515274
	C192.988892,203.270432 190.872070,206.143967 190.921616,210.863449
	C190.949829,213.549805 190.189148,216.244446 189.734253,219.263702
	C188.517807,218.838959 187.412003,218.773392 186.799423,218.189957
	C179.775009,211.499725 171.963699,212.569595 164.960022,217.245041
	C160.798965,220.022858 159.127136,217.720490 157.298523,215.577454
	C152.081635,209.463531 146.589584,209.373611 142.052689,215.960938
	C139.804199,219.225632 137.712799,218.401749 135.077942,216.660431
	C130.822815,213.848297 126.600876,209.995255 120.997917,213.077271
	C118.203705,214.614288 115.862358,216.974594 112.934860,218.979004
M82.123741,111.348686
	C79.395699,114.075836 76.061279,116.419609 74.050362,119.600166
	C67.319061,130.246674 68.293839,141.252228 74.394547,151.747238
	C82.399620,165.518326 103.863251,170.108292 116.186958,154.033722
	C120.541473,148.353867 122.752998,142.015610 123.642601,135.665176
	C124.650917,128.467239 123.188072,120.684639 116.307991,115.974319
	C113.369576,113.962601 109.657501,113.079376 106.294197,111.690094
	C98.561775,108.496033 90.767021,107.409828 82.123741,111.348686
M181.955109,113.578239
	C175.963333,113.047539 170.571335,114.458000 165.630371,118.033974
	C156.842484,124.394096 152.941559,133.484039 153.568405,143.664047
	C154.123672,152.681732 159.332382,160.077408 167.433456,164.757828
	C174.714661,168.964600 182.726578,171.041031 190.397217,166.904083
	C195.489563,164.157639 199.937134,159.785202 203.877411,155.421860
	C212.326935,146.065231 209.363235,131.391235 202.745117,124.950035
	C196.872452,119.234352 190.818710,114.603172 181.955109,113.578239
M145.982040,172.802032
	C145.289078,171.720474 144.629990,170.615402 143.897491,169.561325
	C140.096634,164.091904 131.492874,162.984619 127.591667,168.243164
	C125.090950,171.613937 123.762207,176.281586 123.188324,180.540390
	C122.549355,185.282272 122.628311,190.810501 127.438637,193.676376
	C130.588257,195.552856 134.574173,196.570511 138.272263,196.858475
	C144.379944,197.334076 149.259750,192.624649 148.866226,186.620255
	C148.578552,182.230972 147.058456,177.922485 145.982040,172.802032
z"/>
<path fill="#000000" opacity="1.000000" stroke="none"
	d="
M181.994446,238.418304
	C177.285172,246.176147 169.793427,245.622696 162.336899,246.091003
	C162.923279,242.092743 162.880249,238.275040 164.125488,234.938080
	C165.675278,230.784912 167.863190,226.701233 170.562683,223.193283
	C173.245209,219.707397 179.909302,222.112793 180.843155,226.813461
	C181.570221,230.473221 181.638351,234.263901 181.994446,238.418304
z"/>
<path fill="#000000" opacity="1.000000" stroke="none"
	d="
M117.999847,231.108246
	C119.223038,227.460022 120.010277,223.977936 121.805412,221.131485
	C123.272125,218.805817 127.117577,220.349869 128.850082,223.516403
	C132.641190,230.445496 132.216614,237.971786 131.841660,245.431305
	C131.797058,246.318558 129.621948,247.910782 128.595352,247.791473
	C124.814323,247.351990 121.101028,246.329727 116.642517,245.372116
	C117.082291,240.893036 117.540993,236.221130 117.999847,231.108246
z"/>
<path fill="#000000" opacity="1.000000" stroke="none"
	d="
M148.853119,222.040436
	C150.035919,222.571457 151.366150,223.006180 151.541367,223.723160
	C152.510773,227.690063 153.493713,231.696243 153.898895,235.746292
	C154.289337,239.649170 153.983383,243.621735 153.983383,248.023438
	C149.940094,247.646713 146.174103,247.295822 142.233307,246.928635
	C141.173889,239.264618 143.643112,232.592438 147.243576,226.144684
	C147.918076,224.936798 148.072769,223.438629 148.853119,222.040436
z"/>
<path fill="#000000" opacity="1.000000" stroke="none"
	d="
M106.579926,238.069122
	C109.724258,240.772583 106.334023,241.779709 105.526588,241.752243
	C98.088684,241.499405 92.820236,232.433975 96.034409,225.779037
	C96.629837,224.546188 97.167053,223.285248 97.731140,222.037262
	C99.334770,223.369019 101.621399,224.388657 102.401855,226.096573
	C104.101204,229.815338 105.033035,233.884842 106.579926,238.069122
z"/>
<path fill="#FFFFFF" opacity="1.000000" stroke="none"
	d="
M82.480759,111.181023
	C90.767021,107.409828 98.561775,108.496033 106.294197,111.690094
	C109.657501,113.079376 113.369576,113.962601 116.307991,115.974319
	C123.188072,120.684639 124.650917,128.467239 123.642601,135.665176
	C122.752998,142.015610 120.541473,148.353867 116.186958,154.033722
	C103.863251,170.108292 82.399620,165.518326 74.394547,151.747238
	C68.293839,141.252228 67.319061,130.246674 74.050362,119.600166
	C76.061279,116.419609 79.395699,114.075836 82.480759,111.181023
z"/>
<path fill="#FFFFFF" opacity="1.000000" stroke="none"
	d="
M182.299957,113.378059
	C190.818710,114.603172 196.872452,119.234352 202.745117,124.950035
	C209.363235,131.391235 212.326935,146.065231 203.877411,155.421860
	C199.937134,159.785202 195.489563,164.157639 190.397217,166.904083
	C182.726578,171.041031 174.714661,168.964600 167.433456,164.757828
	C159.332382,160.077408 154.123672,152.681732 153.568405,143.664047
	C152.941559,133.484039 156.842484,124.394096 165.630371,118.033974
	C170.571335,114.458000 175.963333,113.047539 182.299957,113.378059
z"/>
<path fill="#FFFFFF" opacity="1.000000" stroke="none"
	d="
M146.034866,173.190002
	C147.058456,177.922485 148.578552,182.230972 148.866226,186.620255
	C149.259750,192.624649 144.379944,197.334076 138.272263,196.858475
	C134.574173,196.570511 130.588257,195.552856 127.438637,193.676376
	C122.628311,190.810501 122.549355,185.282272 123.188324,180.540390
	C123.762207,176.281586 125.090950,171.613937 127.591667,168.243164
	C131.492874,162.984619 140.096634,164.091904 143.897491,169.561325
	C144.629990,170.615402 145.289078,171.720474 146.034866,173.190002
z"/>
</svg>
